<?xml version="1.0" encoding="UTF-8" standalone="no"?>
<svg
   width="623.29517pt"
   height="491.71042pt"
   viewBox="0 0 623.29517 491.71042"
   version="1.1"
   id="svg4"
   xmlns:xlink="http://www.w3.org/1999/xlink"
   xmlns="http://www.w3.org/2000/svg"
   xmlns:svg="http://www.w3.org/2000/svg">
  <defs
     id="defs4">
    <linearGradient
       id="linearGradient9">
      <stop
         style="stop-color:#c551e8;stop-opacity:1;"
         offset="0.25636008"
         id="stop9" />
      <stop
         style="stop-color:#a283f3;stop-opacity:1;"
         offset="0.69471622"
         id="stop10" />
    </linearGradient>
    <linearGradient
       id="linearGradient7">
      <stop
         style="stop-color:#476ed7;stop-opacity:1;"
         offset="0.2857143"
         id="stop7" />
      <stop
         style="stop-color:#64baa2;stop-opacity:0.99999982;"
         offset="0.71819961"
         id="stop8" />
    </linearGradient>
    <linearGradient
       xlink:href="#linearGradient7"
       id="linearGradient8"
       x1="117.80026"
       y1="319.70264"
       x2="117.80026"
       y2="101.61522"
       gradientUnits="userSpaceOnUse"
       gradientTransform="translate(-8.7565748,-46.099914)" />
    <linearGradient
       xlink:href="#linearGradient9"
       id="linearGradient10"
       x1="553.42096"
       y1="234.70071"
       x2="553.42096"
       y2="77.438881"
       gradientUnits="userSpaceOnUse" />
    <linearGradient
       xlink:href="#linearGradient9"
       id="linearGradient2"
       gradientUnits="userSpaceOnUse"
       x1="553.42096"
       y1="234.70071"
       x2="553.42096"
       y2="77.438881" />
  </defs>
  <g
     id="#78589eff"
     style="fill:url(#linearGradient10)"
     transform="translate(-8.7565748,-46.099914)">
    <path
       fill="#78589e"
       opacity="1"
       d="m 538.44,46.27 c 10.37,-0.22 20.76,-0.23 31.15,-0.01 0.25,6.39 0.43,12.79 0.7,19.18 18.4,0.94 36.61,5.02 53.09,13.42 -3.58,10.9 -7.09,21.81 -10.71,32.69 -14.02,-3.11 -27.1,-10.37 -41.87,-9.83 -0.64,9.74 -1.36,19.54 -0.78,29.31 0,3.67 4.15,4.24 6.82,5.26 15.91,4.7 32.83,9.9 44.83,22.03 12.01,14.13 13.73,35.79 4.48,51.8 -7.22,14.19 -21.98,22.77 -36.88,26.89 -6.06,2.22 -13.85,0.85 -18.96,5.23 -0.55,7.66 -0.39,15.34 -0.39,23.01 -10.65,0.78 -21.5,1.51 -32.04,-0.56 0.06,-7.69 0.11,-15.36 0.16,-23.04 -13.01,-2.64 -26.47,-3.34 -39.12,-7.62 -8.25,-2.78 -16.41,-5.91 -24.13,-9.95 3.08,-11.28 6.3,-22.52 10.28,-33.52 16.5,7.48 33.67,14.18 52.03,14.79 0.85,-11.44 1.43,-22.93 0.89,-34.39 0.03,-2.82 -3.11,-3.81 -5.26,-4.65 -14.8,-4.77 -31.41,-7.78 -42.81,-19.24 -12.94,-11.98 -14.65,-32.13 -8.67,-47.96 5.79,-13.17 17.75,-22.85 31.25,-27.35 8,-2.68 16.39,-3.81 24.59,-5.73 0.43,-6.59 0.83,-13.18 1.35,-19.76 m -16.26,64.85 c -1.72,9.25 8,13.23 15.1,15.57 0.75,-9.02 0.36,-18.13 -0.81,-27.1 -5.89,1.84 -13.31,4.48 -14.29,11.53 m 48.03,65.67 c -0.22,9.95 -0.12,19.9 0.49,29.84 5.49,-1.5 11.25,-3.34 15,-7.92 3.4,-3.21 2.75,-8.49 0.98,-12.39 -3.12,-5.9 -9.69,-9.93 -16.47,-9.53 z"
       id="path1"
       style="fill:url(#linearGradient2)" />
  </g>
  <path
     fill="#64b8ba"
     opacity="1"
     d="m 11.233426,112.81009 c 20.76,-31.230004 59.57,-46.100004 96.010004,-45.980004 24.98,-0.87 49.86,6.17 71.33,18.73 11.31,8.43 23.35,17.060004 30.26,29.720004 7.84,14.32 11.12,31.34 8.2,47.48 -4.7,19.26 -15.99,37.26 -32.88,48.03 -13.6,10.46 -30.41,15.32 -46.94,18.85 -14.15,3.13 -28.71,1.93 -43.070004,1.58 -4.35,-0.22 -7.39,3.67 -10.87,5.7 -12.16,9.79 -25.4,18.12 -39.18,25.44 -1.02,-15.05 0.12,-30.12 0.16,-45.18 -14.9,-7.26 -27.6,-18.91 -36.1900008,-33.08 -11.38,-22.05 -11.06,-50.6 3.1700008,-71.29 z"
     id="path2"
     style="fill:url(#linearGradient8)" />
  <path
     fill="#64b8ba"
     opacity="1"
     d="m 176.53343,408.77009 c 0.28,0.44 0.84,1.34 1.12,1.79 -0.28,-0.45 -0.84,-1.35 -1.12,-1.79 z"
     id="path3" />
  <g
     id="#fcfcfcff"
     style="fill:#ffffff"
     transform="translate(-8.7565748,-46.099914)">
    <path
       fill="#fcfcfc"
       opacity="1"
       d="m 223.07,137.3 c 13.2,-0.37 26.41,-0.45 39.61,-0.08 0.78,71.93 0.04,143.87 0.35,215.8 0.18,28.58 16.13,57.16 42.08,69.98 15.15,7.82 32.82,9.27 49.56,7.52 18.26,-2.88 35.45,-12.35 47.43,-26.46 12.71,-14.82 18.73,-34.66 17.94,-54.05 -0.53,-29.35 1.73,-58.68 -0.02,-88.01 0.33,-41.66 -0.82,-83.35 0.59,-124.99 14.41,-0.05 28.82,-0.02 43.24,0.03 4.2,11.96 12.12,22.41 22.85,29.28 10.3,7.45 22.8,10.53 34.34,15.42 -0.45,1.18 -0.9,2.36 -1.33,3.54 -15.42,-4.25 -29.88,-11.26 -44.9,-16.64 -7.72,21.35 -13.2,43.48 -21.7,64.55 21.07,10.53 43.35,19.21 66.75,22.77 0.03,8.29 -0.14,16.59 0.39,24.88 2.5,1.65 5.53,2.12 8.35,3.11 0.07,31.87 2.2,63.98 -1.83,95.69 -7.68,57.07 -44.11,109.28 -95.01,136.19 -46.68,24.56 -103.51,28.57 -153.45,11.87 -32.1,-10.61 -60.3,-31.29 -82.11,-56.9 -3.52,-4.5 -7.74,-8.74 -9.79,-14.14 -0.28,-0.45 -0.84,-1.35 -1.12,-1.79 -12.3,-17.94 -20.71,-38.51 -25.41,-59.74 -6.91,-33.51 -5.23,-67.99 -4.1,-101.95 23.86,-4.98 46.71,-15.98 63.92,-33.48 12.39,-13.3 22.48,-29.5 25.47,-47.67 2.92,-15.9 1.47,-32.8 -5.64,-47.45 -3.77,-10.1 -11.37,-17.94 -16.46,-27.28 z"
       id="path4"
       style="fill:#ffffff" />
  </g>
</svg>
